<svg width="32" height="36" viewBox="0 0 32 36" fill="none" xmlns="http://www.w3.org/2000/svg">
<path d="M0.00158691 7.375C0.00158691 5.55164 0.581083 3.80295 1.61259 2.51364C2.6441 1.22433 4.04313 0.5 5.5019 0.5H7.00199C7.39984 0.5 7.78139 0.697544 8.06271 1.04917C8.34403 1.40081 8.50208 1.87772 8.50208 2.375C8.50208 2.87228 8.34403 3.34919 8.06271 3.70083C7.78139 4.05246 7.39984 4.25 7.00199 4.25H5.5019C4.12182 4.25 3.00176 5.65 3.00176 7.375V9.25C3.00176 9.74728 2.84372 10.2242 2.5624 10.5758C2.28107 10.9275 1.89952 11.125 1.50167 11.125C1.10383 11.125 0.722273 10.9275 0.440952 10.5758C0.159631 10.2242 0.00158692 9.74728 0.00158691 9.25V7.375ZM23.5029 2.375C23.5029 1.87772 23.661 1.40081 23.9423 1.04917C24.2236 0.697544 24.6052 0.5 25.003 0.5H26.5031C27.9619 0.5 29.3609 1.22433 30.3924 2.51364C31.4239 3.80295 32.0034 5.55164 32.0034 7.375V9.25C32.0034 9.74728 31.8454 10.2242 31.5641 10.5758C31.2827 10.9275 30.9012 11.125 30.5033 11.125C30.1055 11.125 29.7239 10.9275 29.4426 10.5758C29.1613 10.2242 29.0033 9.74728 29.0033 9.25V7.375C29.0033 5.65 27.8832 4.25 26.5031 4.25H25.003C24.6052 4.25 24.2236 4.05246 23.9423 3.70083C23.661 3.34919 23.5029 2.87228 23.5029 2.375ZM1.50167 24.875C1.89952 24.875 2.28107 25.0725 2.5624 25.4242C2.84372 25.7758 3.00176 26.2527 3.00176 26.75V28.625C3.00176 30.35 4.12182 31.75 5.5019 31.75H7.00199C7.39984 31.75 7.78139 31.9475 8.06271 32.2992C8.34403 32.6508 8.50208 33.1277 8.50208 33.625C8.50208 34.1223 8.34403 34.5992 8.06271 34.9508C7.78139 35.3025 7.39984 35.5 7.00199 35.5H5.5019C4.04313 35.5 2.6441 34.7757 1.61259 33.4864C0.581083 32.197 0.00158691 30.4484 0.00158691 28.625V26.75C0.00158691 26.2527 0.159631 25.7758 0.440952 25.4242C0.722273 25.0725 1.10383 24.875 1.50167 24.875ZM30.5033 24.875C30.9012 24.875 31.2827 25.0725 31.5641 25.4242C31.8454 25.7758 32.0034 26.2527 32.0034 26.75V28.625C32.0034 30.4484 31.4239 32.197 30.3924 33.4864C29.3609 34.7757 27.9619 35.5 26.5031 35.5H25.003C24.6052 35.5 24.2236 35.3025 23.9423 34.9508C23.661 34.5992 23.5029 34.1223 23.5029 33.625C23.5029 33.1277 23.661 32.6508 23.9423 32.2992C24.2236 31.9475 24.6052 31.75 25.003 31.75H26.5031C27.8832 31.75 29.0033 30.35 29.0033 28.625V26.75C29.0033 26.2527 29.1613 25.7758 29.4426 25.4242C29.7239 25.0725 30.1055 24.875 30.5033 24.875ZM7.00199 8C7.39984 8 7.78139 8.19754 8.06271 8.54917C8.34403 8.90081 8.50208 9.37772 8.50208 9.875V26.125C8.50208 26.6223 8.34403 27.0992 8.06271 27.4508C7.78139 27.8025 7.39984 28 7.00199 28C6.60414 28 6.22259 27.8025 5.94127 27.4508C5.65995 27.0992 5.5019 26.6223 5.5019 26.125V9.875C5.5019 9.37772 5.65995 8.90081 5.94127 8.54917C6.22259 8.19754 6.60414 8 7.00199 8ZM14.5024 9.875C14.5024 9.37772 14.3444 8.90081 14.0631 8.54917C13.7817 8.19754 13.4002 8 13.0023 8C12.6045 8 12.2229 8.19754 11.9416 8.54917C11.6603 8.90081 11.5023 9.37772 11.5023 9.875V26.125C11.5023 26.6223 11.6603 27.0992 11.9416 27.4508C12.2229 27.8025 12.6045 28 13.0023 28C13.4002 28 13.7817 27.8025 14.0631 27.4508C14.3444 27.0992 14.5024 26.6223 14.5024 26.125V9.875ZM19.0027 8C19.4005 8 19.7821 8.19754 20.0634 8.54917C20.3447 8.90081 20.5028 9.37772 20.5028 9.875V26.125C20.5028 26.6223 20.3447 27.0992 20.0634 27.4508C19.7821 27.8025 19.4005 28 19.0027 28C18.6048 28 18.2233 27.8025 17.942 27.4508C17.6606 27.0992 17.5026 26.6223 17.5026 26.125V9.875C17.5026 9.37772 17.6606 8.90081 17.942 8.54917C18.2233 8.19754 18.6048 8 19.0027 8ZM26.5031 9.875C26.5031 9.37772 26.3451 8.90081 26.0637 8.54917C25.7824 8.19754 25.4009 8 25.003 8C24.6052 8 24.2236 8.19754 23.9423 8.54917C23.661 8.90081 23.5029 9.37772 23.5029 9.875V26.125C23.5029 26.6223 23.661 27.0992 23.9423 27.4508C24.2236 27.8025 24.6052 28 25.003 28C25.4009 28 25.7824 27.8025 26.0637 27.4508C26.3451 27.0992 26.5031 26.6223 26.5031 26.125V9.875Z" fill="black"/>
</svg>
