<svg width="34" height="34" viewBox="0 0 34 34" fill="none" xmlns="http://www.w3.org/2000/svg">
<path d="M17.0551 17C14.7633 17 12.8014 16.1841 11.1693 14.5521C9.53728 12.9202 8.72126 10.9584 8.72126 8.66671C8.72126 6.37504 9.53728 4.41324 11.1693 2.78129C12.8014 1.14935 14.7633 0.333374 17.0551 0.333374C19.3469 0.333374 21.3088 1.14935 22.9408 2.78129C24.5729 4.41324 25.3889 6.37504 25.3889 8.66671C25.3889 10.9584 24.5729 12.9202 22.9408 14.5521C21.3088 16.1841 19.3469 17 17.0551 17ZM0.387451 33.6667V27.8334C0.387451 26.6528 0.691636 25.5674 1.3 24.5771C1.90837 23.5868 2.71536 22.832 3.72098 22.3125C5.87388 21.2362 8.0615 20.4285 10.2839 19.8896C12.5062 19.3507 14.7633 19.082 17.0551 19.0834C19.3469 19.0834 21.604 19.3528 23.8263 19.8917C26.0487 20.4306 28.2363 21.2375 30.3892 22.3125C31.3962 22.8334 32.2039 23.5889 32.8122 24.5792C33.4206 25.5695 33.7241 26.6542 33.7227 27.8334V33.6667H0.387451Z" fill="white"/>
</svg>
