<svg width="40" height="50" viewBox="0 0 40 50" fill="none" xmlns="http://www.w3.org/2000/svg">
<path d="M25.5407 30.3571H22.6487V19.6429H25.5407V30.3571ZM25.5407 39.2857V48.2143C25.5407 48.6879 25.3883 49.1421 25.1171 49.477C24.846 49.8119 24.4782 50 24.0947 50H15.4188C15.0353 50 14.6675 49.8119 14.3963 49.477C14.1252 49.1421 13.9728 48.6879 13.9728 48.2143V39.2857H16.8648V46.4286H22.6487V39.2857H25.5407ZM13.9728 30.3571V19.6429H16.8648V30.3571H13.9728ZM25.5407 10.7143H22.6487V3.57143H16.8648V10.7143H13.9728V1.78571C13.9728 1.31211 14.1252 0.85791 14.3963 0.523024C14.6675 0.188137 15.0353 0 15.4188 0H24.0947C24.4782 0 24.846 0.188137 25.1171 0.523024C25.3883 0.85791 25.5407 1.31211 25.5407 1.78571V10.7143Z" fill="black"/>
<path d="M6.59834 10.7143L3.37959 15.1786L6.59545 19.6429H31.3246V10.7143H6.59834ZM5.94765 7.14286H32.7705C33.154 7.14286 33.5218 7.33099 33.793 7.66588C34.0642 8.00077 34.2165 8.45497 34.2165 8.92857V21.4286C34.2165 21.9022 34.0642 22.3564 33.793 22.6913C33.5218 23.0261 33.154 23.2143 32.7705 23.2143H5.94765C5.74327 23.2144 5.5412 23.1609 5.35477 23.0575C5.16833 22.9541 5.00177 22.803 4.86606 22.6143L0.366177 16.3643C0.131189 16.0375 0.00140381 15.6156 0.00140381 15.1786C0.00140381 14.7415 0.131189 14.3197 0.366177 13.9929L4.86606 7.74286C5.00177 7.55413 5.16833 7.40307 5.35477 7.29965C5.5412 7.19623 5.74327 7.14279 5.94765 7.14286ZM36.6197 34.8214L33.4068 39.2857H8.67766V30.3571H33.4039L36.6197 34.8214ZM7.23457 26.7857C6.85107 26.7857 6.48328 26.9739 6.21211 27.3087C5.94094 27.6436 5.78859 28.0978 5.78859 28.5714V41.0714C5.78859 41.545 5.94094 41.9992 6.21211 42.3341C6.48328 42.669 6.85107 42.8571 7.23457 42.8571H34.0575C34.2618 42.8572 34.4639 42.8038 34.6503 42.7003C34.8368 42.5969 35.0033 42.4459 35.139 42.2571L39.6389 36.0071C39.8739 35.6803 40.0037 35.2585 40.0037 34.8214C40.0037 34.3844 39.8739 33.9625 39.6389 33.6357L35.139 27.3857C35.0033 27.197 34.8368 27.0459 34.6503 26.9425C34.4639 26.8391 34.2618 26.7856 34.0575 26.7857H7.23457Z" fill="black"/>
</svg>
