<svg width="35" height="45" viewBox="0 0 35 45" fill="none" xmlns="http://www.w3.org/2000/svg">
<path d="M3.89076 45C2.82126 45 1.90537 44.51 1.14311 43.53C0.380839 42.55 0.00035488 41.3733 0.00165125 40V5C0.00165125 3.625 0.382784 2.4475 1.14505 1.4675C1.90732 0.487504 2.82255 -0.00166242 3.89076 4.24448e-06H25.2809L35.0037 12.5V40C35.0037 41.375 34.6225 42.5525 33.8603 43.5325C33.098 44.5125 32.1828 45.0017 31.1146 45H3.89076ZM7.77988 35H27.2254V30H7.77988V35ZM7.77988 25H27.2254V20H7.77988V25ZM23.3363 15H31.1146L23.3363 5V15ZM7.77988 15H17.5027V10H7.77988V15Z" fill="black"/>
</svg>
