<svg width="34" height="40" viewBox="0 0 34 40" fill="none" xmlns="http://www.w3.org/2000/svg">
<path d="M19.9694 26.875L29.9699 39.375L33.4868 34.875L23.4862 22.375L19.9694 26.875ZM26.1697 16.0417C25.5197 16.0417 24.8196 15.9375 24.2696 15.6459L5.28519 39.2709L1.76832 34.875L14.119 19.4584L11.1689 15.75L9.96879 17.2084L7.55199 14.2709V20.2292L6.38525 21.6875L0.51825 14.2709L1.68498 12.8125H6.36859L4.03512 9.87502L9.96879 2.45836C10.4297 1.8791 10.9777 1.41942 11.5813 1.10576C12.1848 0.79209 12.832 0.630615 13.4857 0.630615C14.1393 0.630615 14.7865 0.79209 15.39 1.10576C15.9936 1.41942 16.5416 1.8791 17.0025 2.45836L13.4857 6.95836L15.8358 9.87502L14.6524 11.3542L17.6359 15.0625L20.6694 11.1459C20.4361 10.4584 20.3361 9.58336 20.3361 8.81252C20.3294 7.8507 20.4756 6.8968 20.766 6.00607C21.0564 5.11533 21.4853 4.30548 22.0279 3.62341C22.5705 2.94133 23.216 2.40061 23.9269 2.03254C24.6379 1.66448 25.4002 1.4764 26.1697 1.47919C27.1531 1.47919 28.0198 1.77086 28.8032 2.35419L24.353 7.91669L26.8531 11.0417L31.3034 5.47919C31.77 6.45836 32.0034 7.50002 32.0034 8.81252C32.0034 12.8125 29.4199 16.0417 26.1697 16.0417Z" fill="black"/>
</svg>
