<svg width="39" height="49" viewBox="0 0 39 49" fill="none" xmlns="http://www.w3.org/2000/svg">
<mask id="mask0_74_51" style="mask-type:luminance" maskUnits="userSpaceOnUse" x="0" y="0" width="39" height="49">
<path d="M34.8125 2H4.1875C2.97938 2 2 3.00736 2 4.25V44.75C2 45.9926 2.97938 47 4.1875 47H34.8125C36.0206 47 37 45.9926 37 44.75V4.25C37 3.00736 36.0206 2 34.8125 2Z" fill="white" stroke="white" stroke-width="4" stroke-linejoin="round"/>
<path d="M16.2188 13.25H29.3438M16.2188 24.5H29.3438M16.2188 35.75H29.3438" stroke="black" stroke-width="4" stroke-linecap="round" stroke-linejoin="round"/>
<path fill-rule="evenodd" clip-rule="evenodd" d="M9.65625 15.5C10.2364 15.5 10.7928 15.2629 11.203 14.841C11.6133 14.419 11.8438 13.8467 11.8438 13.25C11.8438 12.6533 11.6133 12.081 11.203 11.659C10.7928 11.2371 10.2364 11 9.65625 11C9.07609 11 8.51969 11.2371 8.10945 11.659C7.69922 12.081 7.46875 12.6533 7.46875 13.25C7.46875 13.8467 7.69922 14.419 8.10945 14.841C8.51969 15.2629 9.07609 15.5 9.65625 15.5ZM9.65625 26.75C10.2364 26.75 10.7928 26.5129 11.203 26.091C11.6133 25.669 11.8438 25.0967 11.8438 24.5C11.8438 23.9033 11.6133 23.331 11.203 22.909C10.7928 22.4871 10.2364 22.25 9.65625 22.25C9.07609 22.25 8.51969 22.4871 8.10945 22.909C7.69922 23.331 7.46875 23.9033 7.46875 24.5C7.46875 25.0967 7.69922 25.669 8.10945 26.091C8.51969 26.5129 9.07609 26.75 9.65625 26.75ZM9.65625 38C10.2364 38 10.7928 37.7629 11.203 37.341C11.6133 36.919 11.8438 36.3467 11.8438 35.75C11.8438 35.1533 11.6133 34.581 11.203 34.159C10.7928 33.7371 10.2364 33.5 9.65625 33.5C9.07609 33.5 8.51969 33.7371 8.10945 34.159C7.69922 34.581 7.46875 35.1533 7.46875 35.75C7.46875 36.3467 7.69922 36.919 8.10945 37.341C8.51969 37.7629 9.07609 38 9.65625 38Z" fill="black"/>
</mask>
<g mask="url(#mask0_74_51)">
<path d="M-6.75 -2.5H45.75V51.5H-6.75V-2.5Z" fill="black"/>
</g>
</svg>
